{
    "asset" : {
        "generator" : "Khronos glTF Blender I/O v1.8.19",
        "version" : "2.0"
    },
    "scene" : 0,
    "scenes" : [
        {
            "extras" : {
                "uiListCollec" : [
                    {
                        "idx" : 0,
                        "val" : 0,
                        "color" : [
                            0,
                            0,
                            0,
                            1
                        ]
                    },
                    {
                        "idx" : 1,
                        "val" : 2,
                        "color" : [
                            1,
                            1,
                            1,
                            1
                        ]
                    }
                ]
            },
            "name" : "Scene",
            "nodes" : [
                0,
                1,
                2,
                3,
                4,
                5
            ]
        }
    ],
    "nodes" : [
        {
            "mesh" : 0,
            "name" : "Phone",
            "translation" : [
                0.024793416261672974,
                -0.06946860998868942,
                -0.02420617826282978
            ]
        },
        {
            "mesh" : 1,
            "name" : "Screen",
            "rotation" : [
                0,
                0,
                -1,
                -4.371138828673793e-08
            ],
            "scale" : [
                -0.4199999272823334,
                2.2200000286102295,
                0.29999998211860657
            ],
            "translation" : [
                0.016186801716685295,
                0.410429447889328,
                0.2929743230342865
            ]
        },
        {
            "mesh" : 2,
            "name" : "ButtonRight",
            "rotation" : [
                0.7181262373924255,
                0,
                0,
                0.6959128379821777
            ],
            "translation" : [
                -0.3867231011390686,
                -0.3100077509880066,
                0.29644834995269775
            ]
        },
        {
            "mesh" : 3,
            "name" : "ButtonSelect",
            "rotation" : [
                0.7071068286895752,
                0,
                0,
                0.7071068286895752
            ],
            "translation" : [
                0,
                -0.041778258979320526,
                0.3987925052642822
            ]
        },
        {
            "mesh" : 4,
            "name" : "ButtonCancel",
            "rotation" : [
                0.6691305637359619,
                0,
                0,
                0.7431448698043823
            ],
            "translation" : [
                -0.023044664412736893,
                -0.04640810191631317,
                0.3773401081562042
            ]
        },
        {
            "mesh" : 5,
            "name" : "ButtonLeft",
            "rotation" : [
                0.7071068286895752,
                0,
                0,
                0.7071068286895752
            ],
            "translation" : [
                0,
                0,
                0.29999998211860657
            ]
        }
    ],
    "materials" : [
        {
            "doubleSided" : true,
            "name" : "Low_poly",
            "pbrMetallicRoughness" : {
                "baseColorTexture" : {
                    "index" : 0
                },
                "metallicFactor" : 0,
                "roughnessFactor" : 0.5
            }
        },
        {
            "doubleSided" : true,
            "name" : "Material.002",
            "pbrMetallicRoughness" : {
                "metallicFactor" : 0,
                "roughnessFactor" : 0.5
            }
        },
        {
            "doubleSided" : true,
            "name" : "Material.005",
            "pbrMetallicRoughness" : {
                "baseColorFactor" : [
                    0.800000011920929,
                    0.800000011920929,
                    0.800000011920929,
                    1
                ],
                "metallicFactor" : 0,
                "roughnessFactor" : 0.5
            }
        },
        {
            "doubleSided" : true,
            "name" : "Material.004",
            "pbrMetallicRoughness" : {
                "baseColorFactor" : [
                    0.800000011920929,
                    0.800000011920929,
                    0.800000011920929,
                    1
                ],
                "metallicFactor" : 0,
                "roughnessFactor" : 0.5
            }
        },
        {
            "doubleSided" : true,
            "name" : "Material.007",
            "pbrMetallicRoughness" : {
                "baseColorFactor" : [
                    0.800000011920929,
                    0.800000011920929,
                    0.800000011920929,
                    1
                ],
                "metallicFactor" : 0,
                "roughnessFactor" : 0.5
            }
        },
        {
            "doubleSided" : true,
            "name" : "Material.006",
            "pbrMetallicRoughness" : {
                "baseColorFactor" : [
                    0.800000011920929,
                    0.800000011920929,
                    0.800000011920929,
                    1
                ],
                "metallicFactor" : 0,
                "roughnessFactor" : 0.5
            }
        }
    ],
    "meshes" : [
        {
            "name" : "Cube.034",
            "primitives" : [
                {
                    "attributes" : {
                        "POSITION" : 0,
                        "NORMAL" : 1,
                        "TEXCOORD_0" : 2
                    },
                    "indices" : 3,
                    "material" : 0
                }
            ]
        },
        {
            "name" : "Plane.003",
            "primitives" : [
                {
                    "attributes" : {
                        "POSITION" : 4,
                        "NORMAL" : 5,
                        "TEXCOORD_0" : 6
                    },
                    "indices" : 7,
                    "material" : 1
                }
            ]
        },
        {
            "name" : "Plane.004",
            "primitives" : [
                {
                    "attributes" : {
                        "POSITION" : 8,
                        "NORMAL" : 9,
                        "TEXCOORD_0" : 10
                    },
                    "indices" : 7,
                    "material" : 2
                }
            ]
        },
        {
            "name" : "Plane.005",
            "primitives" : [
                {
                    "attributes" : {
                        "POSITION" : 11,
                        "NORMAL" : 12,
                        "TEXCOORD_0" : 13
                    },
                    "indices" : 14,
                    "material" : 3
                }
            ]
        },
        {
            "name" : "Plane.006",
            "primitives" : [
                {
                    "attributes" : {
                        "POSITION" : 15,
                        "NORMAL" : 16,
                        "TEXCOORD_0" : 17
                    },
                    "indices" : 7,
                    "material" : 4
                }
            ]
        },
        {
            "name" : "Plane.007",
            "primitives" : [
                {
                    "attributes" : {
                        "POSITION" : 18,
                        "NORMAL" : 19,
                        "TEXCOORD_0" : 20
                    },
                    "indices" : 7,
                    "material" : 5
                }
            ]
        }
    ],
    "textures" : [
        {
            "sampler" : 0,
            "source" : 0
        }
    ],
    "images" : [
        {
            "bufferView" : 4,
            "mimeType" : "image/png",
            "name" : "diffuse_edit2_2k"
        }
    ],
    "accessors" : [
        {
            "bufferView" : 0,
            "componentType" : 5126,
            "count" : 1574,
            "max" : [
                0.608802855014801,
                1.4575259685516357,
                0.3242608904838562
            ],
            "min" : [
                -0.608802855014801,
                -1.45866060256958,
                -0.2948574423789978
            ],
            "type" : "VEC3"
        },
        {
            "bufferView" : 1,
            "componentType" : 5126,
            "count" : 1574,
            "type" : "VEC3"
        },
        {
            "bufferView" : 2,
            "componentType" : 5126,
            "count" : 1574,
            "type" : "VEC2"
        },
        {
            "bufferView" : 3,
            "componentType" : 5123,
            "count" : 3762,
            "type" : "SCALAR"
        },
        {
            "bufferView" : 5,
            "componentType" : 5126,
            "count" : 4,
            "max" : [
                0.9400285482406616,
                0.12215268611907959,
                -0.011479395441710949
            ],
            "min" : [
                -0.9071630239486694,
                -0.11427043378353119,
                -0.02918105199933052
            ],
            "type" : "VEC3"
        },
        {
            "bufferView" : 6,
            "componentType" : 5126,
            "count" : 4,
            "type" : "VEC3"
        },
        {
            "bufferView" : 7,
            "componentType" : 5126,
            "count" : 4,
            "type" : "VEC2"
        },
        {
            "bufferView" : 8,
            "componentType" : 5123,
            "count" : 6,
            "type" : "SCALAR"
        },
        {
            "bufferView" : 9,
            "componentType" : 5126,
            "count" : 4,
            "max" : [
                0.8480359315872192,
                -0.0010065557435154915,
                0.07283517718315125
            ],
            "min" : [
                0.6401497721672058,
                -0.06952235847711563,
                -0.14532195031642914
            ],
            "type" : "VEC3"
        },
        {
            "bufferView" : 10,
            "componentType" : 5126,
            "count" : 4,
            "type" : "VEC3"
        },
        {
            "bufferView" : 11,
            "componentType" : 5126,
            "count" : 4,
            "type" : "VEC2"
        },
        {
            "bufferView" : 12,
            "componentType" : 5126,
            "count" : 16,
            "max" : [
                0.24984656274318695,
                -0.09248080104589462,
                0.18662497401237488
            ],
            "min" : [
                -0.18542461097240448,
                -0.15702730417251587,
                0.0527007132768631
            ],
            "type" : "VEC3"
        },
        {
            "bufferView" : 13,
            "componentType" : 5126,
            "count" : 16,
            "type" : "VEC3"
        },
        {
            "bufferView" : 14,
            "componentType" : 5126,
            "count" : 16,
            "type" : "VEC2"
        },
        {
            "bufferView" : 15,
            "componentType" : 5123,
            "count" : 24,
            "type" : "SCALAR"
        },
        {
            "bufferView" : 16,
            "componentType" : 5126,
            "count" : 4,
            "max" : [
                -0.14570848643779755,
                -0.10526172816753387,
                0.331485778093338
            ],
            "min" : [
                -0.3895431160926819,
                -0.1682700514793396,
                0.11623852699995041
            ],
            "type" : "VEC3"
        },
        {
            "bufferView" : 17,
            "componentType" : 5126,
            "count" : 4,
            "type" : "VEC3"
        },
        {
            "bufferView" : 18,
            "componentType" : 5126,
            "count" : 4,
            "type" : "VEC2"
        },
        {
            "bufferView" : 19,
            "componentType" : 5126,
            "count" : 4,
            "max" : [
                0.3167046010494232,
                -1.1774591968105597e-07,
                0.4752359688282013
            ],
            "min" : [
                0.08994513005018234,
                -0.05089009180665016,
                0.2535496950149536
            ],
            "type" : "VEC3"
        },
        {
            "bufferView" : 20,
            "componentType" : 5126,
            "count" : 4,
            "type" : "VEC3"
        },
        {
            "bufferView" : 21,
            "componentType" : 5126,
            "count" : 4,
            "type" : "VEC2"
        }
    ],
    "bufferViews" : [
        {
            "buffer" : 0,
            "byteLength" : 18888,
            "byteOffset" : 0
        },
        {
            "buffer" : 0,
            "byteLength" : 18888,
            "byteOffset" : 18888
        },
        {
            "buffer" : 0,
            "byteLength" : 12592,
            "byteOffset" : 37776
        },
        {
            "buffer" : 0,
            "byteLength" : 7524,
            "byteOffset" : 50368
        },
        {
            "buffer" : 0,
            "byteLength" : 812680,
            "byteOffset" : 57892
        },
        {
            "buffer" : 0,
            "byteLength" : 48,
            "byteOffset" : 870572
        },
        {
            "buffer" : 0,
            "byteLength" : 48,
            "byteOffset" : 870620
        },
        {
            "buffer" : 0,
            "byteLength" : 32,
            "byteOffset" : 870668
        },
        {
            "buffer" : 0,
            "byteLength" : 12,
            "byteOffset" : 870700
        },
        {
            "buffer" : 0,
            "byteLength" : 48,
            "byteOffset" : 870712
        },
        {
            "buffer" : 0,
            "byteLength" : 48,
            "byteOffset" : 870760
        },
        {
            "buffer" : 0,
            "byteLength" : 32,
            "byteOffset" : 870808
        },
        {
            "buffer" : 0,
            "byteLength" : 192,
            "byteOffset" : 870840
        },
        {
            "buffer" : 0,
            "byteLength" : 192,
            "byteOffset" : 871032
        },
        {
            "buffer" : 0,
            "byteLength" : 128,
            "byteOffset" : 871224
        },
        {
            "buffer" : 0,
            "byteLength" : 48,
            "byteOffset" : 871352
        },
        {
            "buffer" : 0,
            "byteLength" : 48,
            "byteOffset" : 871400
        },
        {
            "buffer" : 0,
            "byteLength" : 48,
            "byteOffset" : 871448
        },
        {
            "buffer" : 0,
            "byteLength" : 32,
            "byteOffset" : 871496
        },
        {
            "buffer" : 0,
            "byteLength" : 48,
            "byteOffset" : 871528
        },
        {
            "buffer" : 0,
            "byteLength" : 48,
            "byteOffset" : 871576
        },
        {
            "buffer" : 0,
            "byteLength" : 32,
            "byteOffset" : 871624
        }
    ],
    "samplers" : [
        {
            "magFilter" : 9729,
            "minFilter" : 9987
        }
    ],
    "buffers" : [
        {
            "byteLength" : 871656,
            "uri" : "data:application/octet-stream;base64,"
        }
    ]
}
